<?xml version="1.0" encoding="UTF-8"?>
<svg id="Layer_2" data-name="Layer 2" xmlns="http://www.w3.org/2000/svg" viewBox="0 0 2411.24 2563.91">
  <defs>
    <style>
      .cls-1 {
        fill: #135e4b;
      }

      .cls-1, .cls-2, .cls-3, .cls-4 {
        stroke-width: 0px;
      }

      .cls-2, .cls-5 {
        fill: #000;
      }

      .cls-5 {
        font-family: BankGothicBT-Medium, 'BankGothic Md BT';
        font-size: 200px;
        font-weight: 500;
      }

      .cls-3 {
        fill: #c90;
      }

      .cls-6 {
        fill: #fff;
        stroke: #000;
        stroke-linecap: round;
        stroke-miterlimit: 10;
        stroke-width: 10px;
      }

      .cls-4 {
        fill: #900;
      }
    </style>
  </defs>
  <g id="_0" data-name="0">
    <g id="COLOR">
      <g id="LINE">
        <g>
          <path class="cls-1" d="M2204.38,1150.25c.83,16.65,1.25,33.33,1.25,50,0,377.65-212.75,723.09-550,893.03v-493.03h100v312.39c206.86-159.71,334.09-401.45,348.61-662.39h-448.61V307.22c208.23,104.93,373.25,279.32,466.52,493.03h-110.29c-8.42-16.97-17.36-33.64-26.81-50-.91-1.59-1.83-3.17-2.76-4.75-.8-1.38-1.61-2.75-2.43-4.13-.21-.36-.43-.72-.65-1.09-.69-1.17-1.39-2.35-2.11-3.52-2.96-4.95-5.98-9.87-9.05-14.75-1.94-3.1-3.9-6.19-5.89-9.26-.81-1.27-1.63-2.54-2.46-3.8-4.05-6.22-8.18-12.39-12.39-18.51-.99-1.45-1.99-2.9-3-4.34-2.86-4.11-5.75-8.2-8.69-12.26-.99-1.39-2-2.77-3.01-4.15-3.74-5.14-7.54-10.23-11.4-15.29-1.28-1.68-2.57-3.36-3.87-5.03-2.17-2.8-4.35-5.59-6.56-8.37-.76-.96-1.52-1.92-2.29-2.87-.98-1.24-1.98-2.48-2.98-3.71-1.23-1.54-2.48-3.07-3.74-4.6-.3-.37-.61-.74-.91-1.11-2.31-2.82-4.65-5.62-7-8.41-1.74-2.06-3.49-4.12-5.25-6.17-1.09-1.28-2.19-2.55-3.29-3.82-.14-.15-.27-.3-.4-.46-2.72-3.12-5.46-6.23-8.22-9.32-1.4-1.58-2.82-3.15-4.25-4.72-1.28-1.43-2.58-2.85-3.89-4.27-.14-.14-.26-.28-.39-.42-1.41-1.55-2.84-3.09-4.28-4.62-.04-.05-.09-.1-.13-.15-1.41-1.51-2.83-3.02-4.25-4.52-.01-.01-.02-.01-.02-.02-1.45-1.54-2.9-3.07-4.38-4.59-1.46-1.53-2.93-3.06-4.42-4.58-1.47-1.52-2.95-3.03-4.45-4.54-1.62-1.64-3.25-3.28-4.88-4.91-1.37-1.37-2.74-2.73-4.12-4.08-1.51-1.5-3.03-2.98-4.55-4.45-1.52-1.49-3.05-2.96-4.58-4.42-1.4-1.35-2.81-2.69-4.22-4.02-.19-.17-.37-.35-.56-.53-1.49-1.4-2.98-2.8-4.48-4.19-1.49-1.39-2.98-2.77-4.48-4.15-3.4-3.12-6.82-6.21-10.27-9.27-1.09-.98-2.18-1.95-3.28-2.92-5.5-4.85-11.07-9.64-16.7-14.36-1.18-1-2.37-1.99-3.56-2.97-1.97-1.64-3.94-3.26-5.92-4.87-1.32-1.08-2.64-2.15-3.96-3.22-1.66-1.34-3.32-2.67-4.99-3.99-1.66-1.33-3.33-2.65-5.01-3.96-1.68-1.32-3.36-2.63-5.05-3.93v662.39h448.75Z"/>
          <path class="cls-1" d="M1985.05,750.25c-.92-1.59-1.84-3.17-2.76-4.75.93,1.58,1.85,3.16,2.76,4.75Z"/>
          <path class="cls-1" d="M1982.29,745.5c-.81-1.38-1.62-2.76-2.43-4.13.82,1.38,1.63,2.75,2.43,4.13Z"/>
          <path class="cls-1" d="M1979.21,740.28c-.7-1.17-1.4-2.35-2.11-3.52.72,1.17,1.42,2.35,2.11,3.52Z"/>
          <path class="cls-1" d="M1968.05,722.01c-1.94-3.1-3.9-6.18-5.89-9.26,1.99,3.07,3.95,6.16,5.89,9.26Z"/>
          <path class="cls-1" d="M1962.16,712.75c-.81-1.27-1.63-2.54-2.46-3.8.83,1.26,1.65,2.53,2.46,3.8Z"/>
          <path class="cls-1" d="M1947.31,690.44c-.99-1.45-1.99-2.9-3-4.34,1.01,1.44,2.01,2.89,3,4.34Z"/>
          <path class="cls-1" d="M1935.62,673.84c-.99-1.39-2-2.77-3.01-4.15,1.01,1.38,2.02,2.76,3.01,4.15Z"/>
          <path class="cls-1" d="M1921.21,654.4c-1.28-1.68-2.57-3.36-3.87-5.03,1.3,1.67,2.59,3.35,3.87,5.03Z"/>
          <path class="cls-1" d="M1910.78,641c-.75-.96-1.51-1.92-2.29-2.87.77.95,1.53,1.91,2.29,2.87Z"/>
          <path class="cls-1" d="M1905.51,634.42c-1.24-1.54-2.49-3.07-3.74-4.6,1.26,1.53,2.51,3.06,3.74,4.6Z"/>
          <path class="cls-1" d="M1900.86,628.71c-2.32-2.82-4.65-5.62-7-8.41,2.35,2.79,4.69,5.59,7,8.41Z"/>
          <path class="cls-1" d="M1888.61,614.13c-1.09-1.28-2.19-2.55-3.29-3.82,1.1,1.27,2.2,2.54,3.29,3.82Z"/>
          <path class="cls-1" d="M1876.7,600.53c2.76,3.09,5.5,6.2,8.22,9.32-2.72-3.12-5.46-6.23-8.22-9.32Z"/>
          <path class="cls-1" d="M1876.7,600.53c-1.41-1.58-2.82-3.15-4.25-4.72,1.43,1.57,2.85,3.14,4.25,4.72Z"/>
          <path class="cls-1" d="M1872.45,595.81c-1.29-1.43-2.59-2.85-3.89-4.27,1.31,1.42,2.61,2.84,3.89,4.27Z"/>
          <path class="cls-1" d="M1868.17,591.12c-1.42-1.55-2.84-3.08-4.28-4.62,1.44,1.53,2.87,3.07,4.28,4.62Z"/>
          <path class="cls-1" d="M1863.76,586.35c-1.42-1.51-2.83-3.02-4.25-4.52,1.42,1.5,2.84,3.01,4.25,4.52Z"/>
          <path class="cls-1" d="M1859.49,581.81c-1.46-1.54-2.91-3.07-4.38-4.59,1.48,1.52,2.93,3.05,4.38,4.59Z"/>
          <path class="cls-1" d="M1855.11,577.22c-1.47-1.53-2.94-3.06-4.42-4.58,1.49,1.52,2.96,3.05,4.42,4.58Z"/>
          <path class="cls-1" d="M1850.69,572.64c-1.47-1.52-2.96-3.03-4.45-4.54,1.5,1.51,2.98,3.02,4.45,4.54Z"/>
          <path class="cls-1" d="M1841.36,563.19c-1.37-1.36-2.74-2.73-4.12-4.08,1.38,1.35,2.75,2.71,4.12,4.08Z"/>
          <path class="cls-1" d="M1837.24,559.11c-1.51-1.49-3.02-2.97-4.55-4.45,1.52,1.47,3.04,2.95,4.55,4.45Z"/>
          <path class="cls-1" d="M1832.69,554.66c-1.52-1.48-3.04-2.95-4.58-4.42,1.53,1.46,3.06,2.93,4.58,4.42Z"/>
          <path class="cls-1" d="M1828.11,550.24c-1.4-1.34-2.81-2.68-4.22-4.02,1.41,1.33,2.82,2.67,4.22,4.02Z"/>
          <path class="cls-1" d="M1823.33,545.69c-1.49-1.4-2.98-2.8-4.48-4.19,1.5,1.39,2.99,2.79,4.48,4.19Z"/>
          <path class="cls-1" d="M1818.85,541.5c-1.49-1.39-2.98-2.77-4.48-4.15,1.5,1.38,2.99,2.76,4.48,4.15Z"/>
          <path class="cls-1" d="M1804.1,528.08c-1.09-.98-2.18-1.95-3.28-2.92,1.1.97,2.19,1.94,3.28,2.92Z"/>
          <path class="cls-1" d="M1784.12,510.8c-1.18-1-2.37-1.99-3.56-2.97,1.19.98,2.38,1.97,3.56,2.97Z"/>
          <path class="cls-1" d="M1774.64,502.96c-1.32-1.08-2.64-2.15-3.96-3.22,1.32,1.07,2.64,2.14,3.96,3.22Z"/>
          <path class="cls-1" d="M1770.68,499.74c-1.66-1.34-3.32-2.67-4.99-3.99,1.67,1.32,3.33,2.65,4.99,3.99Z"/>
          <path class="cls-1" d="M1765.69,495.75c-1.66-1.33-3.34-2.65-5.01-3.96,1.68,1.31,3.35,2.63,5.01,3.96Z"/>
        </g>
      </g>
      <g>
        <g id="LINE-2" data-name="LINE">
          <line class="cls-6" x1="1205.63" y1="1200.25" x2="1205.63" y2="1100.25"/>
        </g>
        <g id="LINE-3" data-name="LINE">
          <line class="cls-6" x1="1205.63" y1="1200.25" x2="1105.63" y2="1200.25"/>
        </g>
        <g id="LINE-4" data-name="LINE">
          <line class="cls-6" x1="1205.63" y1="1200.25" x2="1205.63" y2="1300.25"/>
        </g>
        <g id="LINE-5" data-name="LINE">
          <line class="cls-6" x1="1205.63" y1="1200.25" x2="1305.63" y2="1200.25"/>
        </g>
      </g>
      <g id="LINE-6" data-name="LINE">
        <path class="cls-2" d="M2405.63,1200.25l-101.14,50c-25.84,567.99-480.3,1022.69-1048.28,1048.84l-50.58,101.16-50-101.14c-567.99-25.84-1022.69-480.3-1048.84-1048.28l-101.16-50.58,101.14-50C132.61,582.26,587.07,127.56,1155.05,101.41L1205.63.25l50,101.14c567.99,25.84,1022.69,480.3,1048.84,1048.28l101.16,50.58ZM2255.63,1200.25c0-579.9-470.1-1050-1050-1050S155.63,620.35,155.63,1200.25s470.1,1050,1050,1050,1050-470.1,1050-1050Z"/>
      </g>
      <g>
        <path class="cls-3" d="M1605.63,283.73v1833.04l-100,37.42V486.13l-198.12,431.88h-.01c-32.61-11.79-66.81-17.76-101.87-17.76l300-653.94,100,37.42Z"/>
        <path class="cls-3" d="M1605.63,283.73l-100-37.42c33.98,10.69,67.36,23.18,100,37.42Z"/>
        <path class="cls-3" d="M1505.63,2154.19l100-37.42c-32.64,14.24-66.02,26.73-100,37.42Z"/>
        <path class="cls-3" d="M905.63,246.31l300,653.94c-35.06,0-69.26,5.97-101.87,17.76h-.01l-198.12-431.88v1668.06l-100-37.42V283.73l100-37.42Z"/>
        <path class="cls-3" d="M905.63,246.31l-100,37.42c32.64-14.24,66.02-26.73,100-37.42Z"/>
        <path class="cls-3" d="M805.63,2116.77l100,37.42c-33.98-10.69-67.36-23.18-100-37.42Z"/>
      </g>
      <path class="cls-4" d="M1482.01,1083.45c-15.11-35.74-36.73-67.81-64.25-95.33-27.52-27.52-59.59-49.14-95.33-64.25-37.05-15.67-76.35-23.62-116.8-23.62s-79.75,7.95-116.8,23.62c-35.74,15.11-67.81,36.73-95.33,64.25-27.52,27.52-49.14,59.59-64.25,95.33-15.67,37.05-23.62,76.35-23.62,116.8s7.95,79.75,23.62,116.8c15.11,35.74,36.73,67.81,64.25,95.33,27.52,27.52,59.59,49.14,95.33,64.25,37.05,15.67,76.35,23.62,116.8,23.62s79.75-7.95,116.8-23.62c35.74-15.11,67.81-36.73,95.33-64.25,27.52-27.52,49.14-59.59,64.25-95.33,15.67-37.05,23.62-76.35,23.62-116.8s-7.95-79.75-23.62-116.8ZM1455.63,1205.25h-50s-.04,0-.06,0c-2.61,106.49-88.45,192.33-194.94,194.94,0,.02,0,.04,0,.06v50c0,2.76-2.24,5-5,5s-5-2.24-5-5v-50s0-.04,0-.06c-106.49-2.61-192.33-88.45-194.94-194.94-.02,0-.04,0-.06,0h-50c-2.76,0-5-2.24-5-5s2.24-5,5-5h50s.04,0,.06,0c2.61-106.49,88.45-192.33,194.94-194.94,0-.02,0-.04,0-.06v-50c0-2.76,2.24-5,5-5s5,2.24,5,5v50s0,.04,0,.06c106.49,2.61,192.33,88.45,194.94,194.94.02,0,.04,0,.06,0h50c2.76,0,5,2.24,5,5s-2.24,5-5,5Z"/>
      <text class="cls-5" transform="translate(0 2516.74) scale(.92 1)"><tspan x="0" y="0">SITEMAPPER SURVEYS</tspan></text>
    </g>
  </g>
</svg>